<svg width="34" height="35" viewBox="0 0 34 35" fill="none" xmlns="http://www.w3.org/2000/svg">
<path d="M23.7291 5.54334V3.33334C23.7291 2.75251 23.2474 2.27084 22.6666 2.27084C22.0858 2.27084 21.6041 2.75251 21.6041 3.33334V5.45834H12.3958V3.33334C12.3958 2.75251 11.9141 2.27084 11.3333 2.27084C10.7524 2.27084 10.2708 2.75251 10.2708 3.33334V5.54334C6.44575 5.89751 4.58992 8.17834 4.30658 11.5642C4.27825 11.975 4.61825 12.315 5.01492 12.315H28.9849C29.3958 12.315 29.7358 11.9608 29.6933 11.5642C29.4099 8.17834 27.5541 5.89751 23.7291 5.54334Z" fill="#21AB70"/>
<path d="M28.3333 14.44H5.66667C4.8875 14.44 4.25 15.0775 4.25 15.8567V24.5834C4.25 28.8334 6.375 31.6667 11.3333 31.6667H18.3175C19.295 31.6667 19.975 30.7175 19.6633 29.7967C19.38 28.975 19.1392 28.0684 19.1392 27.4167C19.1392 23.1242 22.6383 19.625 26.9308 19.625C27.3417 19.625 27.7525 19.6534 28.1492 19.7242C28.9992 19.8517 29.7642 19.1859 29.7642 18.3359V15.8709C29.75 15.0775 29.1125 14.44 28.3333 14.44ZM13.0475 25.5892C12.7783 25.8442 12.41 26 12.0417 26C11.8575 26 11.6733 25.9575 11.5033 25.8867C11.3333 25.8159 11.1775 25.7167 11.0358 25.5892C10.7808 25.32 10.625 24.9659 10.625 24.5834C10.625 24.3992 10.6675 24.215 10.7383 24.045C10.8092 23.8609 10.9083 23.7192 11.0358 23.5775C11.1775 23.45 11.3333 23.3509 11.5033 23.28C12.0133 23.0534 12.6508 23.1809 13.0475 23.5775C13.175 23.7192 13.2742 23.8609 13.345 24.045C13.4158 24.215 13.4583 24.3992 13.4583 24.5834C13.4583 24.9659 13.3025 25.32 13.0475 25.5892ZM13.0475 20.6309C12.7783 20.8859 12.41 21.0417 12.0417 21.0417C11.8575 21.0417 11.6733 21.0134 11.5033 20.9284C11.3333 20.8575 11.1775 20.7584 11.0358 20.6309C10.7808 20.3617 10.625 19.9934 10.625 19.625C10.625 19.4409 10.6675 19.2567 10.7383 19.0867C10.8092 18.9167 10.9083 18.7609 11.0358 18.6192C11.1775 18.4917 11.3333 18.3925 11.5033 18.3217C12.0133 18.1092 12.6508 18.2225 13.0475 18.6192C13.175 18.7609 13.2742 18.9167 13.345 19.0867C13.4158 19.2567 13.4583 19.4409 13.4583 19.625C13.4583 19.9934 13.3025 20.3617 13.0475 20.6309ZM18.3033 20.1634C18.2325 20.3334 18.1333 20.4892 18.0058 20.6309C17.8642 20.7584 17.7083 20.8575 17.5383 20.9284C17.3683 21.0134 17.1842 21.0417 17 21.0417C16.6317 21.0417 16.2633 20.8859 15.9942 20.6309C15.8667 20.4892 15.7675 20.3334 15.6967 20.1634C15.6258 19.9934 15.5833 19.8092 15.5833 19.625C15.5833 19.2567 15.7392 18.8884 15.9942 18.6192C16.3908 18.2225 17.0142 18.095 17.5383 18.3217C17.7083 18.3925 17.8642 18.4917 18.0058 18.6192C18.2608 18.8884 18.4167 19.2567 18.4167 19.625C18.4167 19.8092 18.3883 19.9934 18.3033 20.1634Z" fill="#21AB70"/>
<path d="M26.9167 21.75C23.7858 21.75 21.25 24.2859 21.25 27.4167C21.25 30.5475 23.7858 33.0834 26.9167 33.0834C30.0475 33.0834 32.5833 30.5475 32.5833 27.4167C32.5833 24.2859 30.0475 21.75 26.9167 21.75ZM29.1833 29.74C28.9708 29.9525 28.7017 30.0517 28.4325 30.0517C28.1633 30.0517 27.8942 29.9525 27.6817 29.74L26.9308 28.9892L26.1517 29.7684C25.9392 29.9809 25.67 30.08 25.4008 30.08C25.1317 30.08 24.8625 29.9809 24.65 29.7684C24.2392 29.3575 24.2392 28.6775 24.65 28.2667L25.4292 27.4875L24.6783 26.7367C24.2675 26.3259 24.2675 25.6459 24.6783 25.235C25.0892 24.8242 25.7692 24.8242 26.18 25.235L26.9308 26L27.6392 25.2917C28.05 24.8809 28.73 24.8809 29.1408 25.2917C29.5517 25.7025 29.5517 26.3825 29.1408 26.7934L28.4325 27.5017L29.1833 28.2525C29.5942 28.6634 29.5942 29.3292 29.1833 29.74Z" fill="#21AB70"/>
</svg>
