<svg width="35" height="35" viewBox="0 0 35 35" fill="none" xmlns="http://www.w3.org/2000/svg">
<path d="M24.2291 5.54334V3.33334C24.2291 2.75251 23.7474 2.27084 23.1666 2.27084C22.5858 2.27084 22.1041 2.75251 22.1041 3.33334V5.45834H12.8958V3.33334C12.8958 2.75251 12.4141 2.27084 11.8333 2.27084C11.2524 2.27084 10.7708 2.75251 10.7708 3.33334V5.54334C6.94575 5.89751 5.08992 8.17834 4.80658 11.5642C4.77825 11.975 5.11825 12.315 5.51492 12.315H29.4849C29.8958 12.315 30.2358 11.9608 30.1933 11.5642C29.9099 8.17834 28.0541 5.89751 24.2291 5.54334Z" fill="#F1C34D"/>
<path d="M28.8333 14.44H6.16661C5.38744 14.44 4.74994 15.0775 4.74994 15.8567V24.5834C4.74994 28.8334 6.87494 31.6667 11.8333 31.6667H18.8174C19.7949 31.6667 20.4749 30.7175 20.1633 29.7967C19.8799 28.975 19.6391 28.0684 19.6391 27.4167C19.6391 23.1242 23.1383 19.625 27.4308 19.625C27.8416 19.625 28.2524 19.6534 28.6491 19.7242C29.4991 19.8517 30.2641 19.1859 30.2641 18.3359V15.8709C30.2499 15.0775 29.6124 14.44 28.8333 14.44ZM13.5474 25.5892C13.4058 25.7167 13.2499 25.8159 13.0799 25.8867C12.9099 25.9575 12.7258 26 12.5416 26C12.3574 26 12.1733 25.9575 12.0033 25.8867C11.8333 25.8159 11.6774 25.7167 11.5358 25.5892C11.2808 25.32 11.1249 24.9517 11.1249 24.5834C11.1249 24.4984 11.1391 24.3992 11.1533 24.3142C11.1674 24.215 11.1958 24.13 11.2383 24.045C11.2666 23.96 11.3091 23.875 11.3658 23.79C11.4083 23.7192 11.4791 23.6484 11.5358 23.5775C11.6774 23.45 11.8333 23.3509 12.0033 23.28C12.3433 23.1384 12.7399 23.1384 13.0799 23.28C13.2499 23.3509 13.4058 23.45 13.5474 23.5775C13.6041 23.6484 13.6749 23.7192 13.7174 23.79C13.7741 23.875 13.8166 23.96 13.8449 24.045C13.8874 24.13 13.9158 24.215 13.9299 24.3142C13.9441 24.3992 13.9583 24.4984 13.9583 24.5834C13.9583 24.9517 13.8024 25.32 13.5474 25.5892ZM13.5474 20.6309C13.4058 20.7584 13.2499 20.8575 13.0799 20.9284C12.9099 20.9992 12.7258 21.0417 12.5416 21.0417C12.3574 21.0417 12.1733 20.9992 12.0033 20.9284C11.8191 20.8575 11.6774 20.7584 11.5358 20.6309C11.2808 20.3617 11.1249 19.9934 11.1249 19.625C11.1249 19.2567 11.2808 18.8884 11.5358 18.6192C11.6774 18.4917 11.8333 18.3925 12.0033 18.3217C12.3433 18.18 12.7399 18.18 13.0799 18.3217C13.2499 18.3925 13.4058 18.4917 13.5474 18.6192C13.6041 18.69 13.6749 18.7609 13.7174 18.8317C13.7741 18.9167 13.8166 19.0017 13.8449 19.0867C13.8874 19.1717 13.9158 19.2567 13.9299 19.3417C13.9441 19.4409 13.9583 19.54 13.9583 19.625C13.9583 19.9934 13.8024 20.3617 13.5474 20.6309ZM18.5058 20.6309C18.2366 20.8859 17.8824 21.0417 17.4999 21.0417C17.3158 21.0417 17.1316 20.9992 16.9616 20.9284C16.7774 20.8575 16.6358 20.7584 16.4941 20.6309C16.2391 20.3617 16.0833 19.9934 16.0833 19.625C16.0833 19.54 16.0974 19.4409 16.1116 19.3417C16.1258 19.2567 16.1541 19.1717 16.1966 19.0867C16.2249 19.0017 16.2674 18.9167 16.3241 18.8317C16.3808 18.7609 16.4374 18.69 16.4941 18.6192C17.0183 18.095 17.9674 18.095 18.5058 18.6192C18.5624 18.69 18.6191 18.7609 18.6758 18.8317C18.7324 18.9167 18.7749 19.0017 18.8033 19.0867C18.8458 19.1717 18.8741 19.2567 18.8883 19.3417C18.9024 19.4409 18.9166 19.54 18.9166 19.625C18.9166 19.9934 18.7608 20.3617 18.5058 20.6309Z" fill="#F1C34D"/>
<path d="M31.4258 23.4075C29.2158 21.1975 25.6174 21.1975 23.4074 23.4075C21.1974 25.6175 21.1974 29.2159 23.4074 31.4259C25.6174 33.6359 29.2158 33.6359 31.4258 31.4259C33.6358 29.2159 33.6358 25.6175 31.4258 23.4075ZM30.3491 28.21C30.1649 28.4084 29.8958 28.5217 29.5983 28.5217H28.5499V29.6267C28.5499 29.9242 28.4366 30.1792 28.2383 30.3775C28.0399 30.5759 27.7849 30.6892 27.4874 30.6892C26.9066 30.6892 26.4249 30.2075 26.4249 29.6267V28.5217H25.3624C24.7816 28.5217 24.2999 28.0542 24.2999 27.4592C24.2999 26.8784 24.7816 26.3967 25.3624 26.3967H26.4249V25.3909C26.4249 24.81 26.8924 24.3284 27.4874 24.3284C28.0683 24.3284 28.5499 24.81 28.5499 25.3909V26.3967H29.5983C30.1933 26.3967 30.6608 26.8784 30.6608 27.4592C30.6608 27.7567 30.5474 28.0259 30.3491 28.21Z" fill="#F1C34D"/>
</svg>
