<svg width="34" height="35" viewBox="0 0 34 35" fill="none" xmlns="http://www.w3.org/2000/svg">
<path d="M23.7291 5.54334V3.33334C23.7291 2.75251 23.2474 2.27084 22.6666 2.27084C22.0858 2.27084 21.6041 2.75251 21.6041 3.33334V5.45834H12.3958V3.33334C12.3958 2.75251 11.9141 2.27084 11.3333 2.27084C10.7524 2.27084 10.2708 2.75251 10.2708 3.33334V5.54334C6.44575 5.89751 4.58992 8.17834 4.30658 11.5642C4.27825 11.975 4.61825 12.315 5.01492 12.315H28.9849C29.3958 12.315 29.7358 11.9608 29.6933 11.5642C29.4099 8.17834 27.5541 5.89751 23.7291 5.54334Z" fill="#1F58EA"/>
<path d="M26.9166 21.75C23.7858 21.75 21.2499 24.2859 21.2499 27.4167C21.2499 28.4792 21.5474 29.485 22.0716 30.335C23.0491 31.9784 24.8483 33.0834 26.9166 33.0834C28.9849 33.0834 30.7841 31.9784 31.7616 30.335C32.2858 29.485 32.5833 28.4792 32.5833 27.4167C32.5833 24.2859 30.0474 21.75 26.9166 21.75ZM29.8491 26.8075L26.8316 29.5984C26.6333 29.7825 26.3641 29.8817 26.1091 29.8817C25.8399 29.8817 25.5708 29.7825 25.3583 29.57L23.9558 28.1675C23.5449 27.7567 23.5449 27.0767 23.9558 26.6659C24.3666 26.255 25.0466 26.255 25.4574 26.6659L26.1374 27.3459L28.4041 25.2492C28.8291 24.8525 29.5091 24.8809 29.9058 25.3059C30.3024 25.7309 30.2741 26.3967 29.8491 26.8075Z" fill="#1F58EA"/>
<path d="M28.3333 14.44H5.66661C4.88744 14.44 4.24994 15.0775 4.24994 15.8567V24.5834C4.24994 28.8334 6.37494 31.6667 11.3333 31.6667H18.3174C19.2949 31.6667 19.9749 30.7175 19.6633 29.7967C19.3799 28.975 19.1391 28.0684 19.1391 27.4167C19.1391 23.1242 22.6383 19.625 26.9308 19.625C27.3416 19.625 27.7524 19.6534 28.1491 19.7242C28.9991 19.8517 29.7641 19.1859 29.7641 18.3359V15.8709C29.7499 15.0775 29.1124 14.44 28.3333 14.44ZM13.0474 26.2975C12.7783 26.5525 12.4099 26.7084 12.0416 26.7084C11.6733 26.7084 11.3049 26.5525 11.0358 26.2975C10.7808 26.0284 10.6249 25.66 10.6249 25.2917C10.6249 24.9234 10.7808 24.555 11.0358 24.2859C11.1774 24.1584 11.3191 24.0592 11.5033 23.9884C12.0274 23.7617 12.6508 23.8892 13.0474 24.2859C13.3024 24.555 13.4583 24.9234 13.4583 25.2917C13.4583 25.66 13.3024 26.0284 13.0474 26.2975ZM13.0474 21.3392C12.9766 21.3959 12.9058 21.4525 12.8349 21.5092C12.7499 21.5659 12.6649 21.6084 12.5799 21.6367C12.4949 21.6792 12.4099 21.7075 12.3249 21.7217C12.2258 21.7359 12.1266 21.75 12.0416 21.75C11.6733 21.75 11.3049 21.5942 11.0358 21.3392C10.7808 21.07 10.6249 20.7017 10.6249 20.3334C10.6249 19.965 10.7808 19.5967 11.0358 19.3275C11.3616 19.0017 11.8574 18.8459 12.3249 18.945C12.4099 18.9592 12.4949 18.9875 12.5799 19.03C12.6649 19.0584 12.7499 19.1009 12.8349 19.1575C12.9058 19.2142 12.9766 19.2709 13.0474 19.3275C13.3024 19.5967 13.4583 19.965 13.4583 20.3334C13.4583 20.7017 13.3024 21.07 13.0474 21.3392ZM18.0058 21.3392C17.7366 21.5942 17.3683 21.75 16.9999 21.75C16.6316 21.75 16.2633 21.5942 15.9941 21.3392C15.7391 21.07 15.5833 20.7017 15.5833 20.3334C15.5833 19.965 15.7391 19.5967 15.9941 19.3275C16.5324 18.8034 17.4816 18.8034 18.0058 19.3275C18.2608 19.5967 18.4166 19.965 18.4166 20.3334C18.4166 20.7017 18.2608 21.07 18.0058 21.3392Z" fill="#1F58EA"/>
</svg>
