<svg width="35" height="35" viewBox="0 0 35 35" fill="none" xmlns="http://www.w3.org/2000/svg">
<path d="M24.2291 5.54334V3.33334C24.2291 2.75251 23.7474 2.27084 23.1666 2.27084C22.5858 2.27084 22.1041 2.75251 22.1041 3.33334V5.45834H12.8958V3.33334C12.8958 2.75251 12.4141 2.27084 11.8333 2.27084C11.2524 2.27084 10.7708 2.75251 10.7708 3.33334V5.54334C6.94575 5.89751 5.08992 8.17834 4.80658 11.5642C4.77825 11.975 5.11825 12.315 5.51492 12.315H29.4849C29.8958 12.315 30.2358 11.9608 30.1933 11.5642C29.9099 8.17834 28.0541 5.89751 24.2291 5.54334Z" fill="#21AB70"/>
<path d="M28.8333 14.44H6.16661C5.38744 14.44 4.74994 15.0775 4.74994 15.8567V24.5834C4.74994 28.8334 6.87494 31.6667 11.8333 31.6667H23.1666C28.1249 31.6667 30.2499 28.8334 30.2499 24.5834V15.8567C30.2499 15.0775 29.6124 14.44 28.8333 14.44ZM13.5474 26.2975C13.4058 26.425 13.2499 26.5242 13.0799 26.595C12.9099 26.6659 12.7258 26.7084 12.5416 26.7084C12.3574 26.7084 12.1733 26.6659 12.0033 26.595C11.8333 26.5242 11.6774 26.425 11.5358 26.2975C11.2808 26.0284 11.1249 25.66 11.1249 25.2917C11.1249 24.9234 11.2808 24.555 11.5358 24.2859C11.6774 24.1584 11.8333 24.0592 12.0033 23.9884C12.3433 23.8467 12.7399 23.8467 13.0799 23.9884C13.2499 24.0592 13.4058 24.1584 13.5474 24.2859C13.8024 24.555 13.9583 24.9234 13.9583 25.2917C13.9583 25.66 13.8024 26.0284 13.5474 26.2975ZM13.8449 20.8717C13.7741 21.0417 13.6749 21.1975 13.5474 21.3392C13.4058 21.4667 13.2499 21.5659 13.0799 21.6367C12.9099 21.7075 12.7258 21.75 12.5416 21.75C12.3574 21.75 12.1733 21.7075 12.0033 21.6367C11.8333 21.5659 11.6774 21.4667 11.5358 21.3392C11.4083 21.1975 11.3091 21.0417 11.2383 20.8717C11.1674 20.7017 11.1249 20.5175 11.1249 20.3334C11.1249 20.1492 11.1674 19.965 11.2383 19.795C11.3091 19.625 11.4083 19.4692 11.5358 19.3275C11.6774 19.2 11.8333 19.1009 12.0033 19.03C12.3433 18.8884 12.7399 18.8884 13.0799 19.03C13.2499 19.1009 13.4058 19.2 13.5474 19.3275C13.6749 19.4692 13.7741 19.625 13.8449 19.795C13.9158 19.965 13.9583 20.1492 13.9583 20.3334C13.9583 20.5175 13.9158 20.7017 13.8449 20.8717ZM18.5058 21.3392C18.3641 21.4667 18.2083 21.5659 18.0383 21.6367C17.8683 21.7075 17.6841 21.75 17.4999 21.75C17.3158 21.75 17.1316 21.7075 16.9616 21.6367C16.7916 21.5659 16.6358 21.4667 16.4941 21.3392C16.2391 21.07 16.0833 20.7017 16.0833 20.3334C16.0833 19.965 16.2391 19.5967 16.4941 19.3275C16.6358 19.2 16.7916 19.1009 16.9616 19.03C17.3016 18.8742 17.6983 18.8742 18.0383 19.03C18.2083 19.1009 18.3641 19.2 18.5058 19.3275C18.7608 19.5967 18.9166 19.965 18.9166 20.3334C18.9166 20.7017 18.7608 21.07 18.5058 21.3392Z" fill="#21AB70"/>
</svg>
