<svg width="20" height="20" viewBox="0 0 20 20" fill="none" xmlns="http://www.w3.org/2000/svg">
<g clip-path="url(#clip0_65_1534)">
<path d="M17.1036 1.68742C16.7719 1.355 16.3307 1.17188 15.8613 1.17188H15.0822V1.95312C15.0822 2.81469 14.3821 3.51562 13.5214 3.51562H6.49801C5.63738 3.51562 4.93723 2.81469 4.93723 1.95312V1.17188H4.15555C3.18844 1.17188 2.40078 1.95953 2.39969 2.92773L2.38281 18.2402C2.38227 18.7101 2.56469 19.152 2.89637 19.4845C3.22813 19.8169 3.6693 20 4.13867 20H15.8444C16.8115 20 17.5992 19.2123 17.6003 18.2441L17.6172 2.93164C17.6177 2.46176 17.4353 2.01988 17.1036 1.68742ZM10.199 7.03125H14.3573C14.6805 7.03125 14.9426 7.29359 14.9426 7.61719C14.9426 7.94078 14.6805 8.20312 14.3573 8.20312H10.199C9.87574 8.20312 9.61371 7.94078 9.61371 7.61719C9.61371 7.29359 9.87574 7.03125 10.199 7.03125ZM10.199 10.9375H14.3573C14.6805 10.9375 14.9426 11.1998 14.9426 11.5234C14.9426 11.847 14.6805 12.1094 14.3573 12.1094H10.199C9.87574 12.1094 9.61371 11.847 9.61371 11.5234C9.61371 11.1998 9.87574 10.9375 10.199 10.9375ZM10.199 14.8438H14.374C14.6973 14.8438 14.9593 15.1061 14.9593 15.4297C14.9593 15.7533 14.6973 16.0156 14.374 16.0156H10.199C9.87574 16.0156 9.61371 15.7533 9.61371 15.4297C9.61371 15.1061 9.87574 14.8438 10.199 14.8438ZM5.21215 7.05437C5.44074 6.82555 5.81129 6.82555 6.03988 7.05437L6.35813 7.37301L7.70789 6.02176C7.93649 5.79297 8.30703 5.79289 8.53559 6.02176C8.76414 6.25055 8.76414 6.62156 8.53559 6.85039L6.77195 8.61594C6.66219 8.72582 6.51332 8.78758 6.35809 8.78758C6.20285 8.78758 6.05399 8.72586 5.94422 8.61594L5.21211 7.88297C4.98356 7.65418 4.98356 7.28316 5.21215 7.05437ZM5.21215 11.2589C5.44074 11.0301 5.81129 11.0301 6.03988 11.2589L6.35813 11.5775L7.70789 10.2263C7.93645 9.9975 8.30703 9.9975 8.53559 10.2263C8.76414 10.4551 8.76414 10.8261 8.53559 11.0549L6.77195 12.8205C6.66223 12.9304 6.51332 12.9921 6.35809 12.9921C6.20285 12.9921 6.05399 12.9304 5.94422 12.8205L5.21211 12.0875C4.98356 11.8588 4.98356 11.4878 5.21215 11.2589ZM5.21215 15.1652C5.44074 14.9364 5.81129 14.9364 6.03988 15.1652L6.35813 15.4838L7.70789 14.1325C7.93645 13.9038 8.30703 13.9038 8.53559 14.1325C8.76414 14.3613 8.76414 14.7323 8.53559 14.9612L6.77195 16.7268C6.66223 16.8366 6.51332 16.8984 6.35809 16.8984C6.20285 16.8984 6.05399 16.8367 5.94422 16.7268L5.21211 15.9938C4.98356 15.765 4.98356 15.394 5.21215 15.1652Z" fill="#21AB70"/>
<path d="M6.10791 1.95312C6.10791 2.16887 6.2826 2.34375 6.49811 2.34375H13.5215C13.7371 2.34375 13.9117 2.16887 13.9117 1.95312V0.390625C13.9117 0.174883 13.7371 0 13.5215 0H6.49811C6.2826 0 6.10791 0.174883 6.10791 0.390625V1.95312Z" fill="#21AB70"/>
</g>
<defs>
<clipPath id="clip0_65_1534">
<rect width="20" height="20" fill="white"/>
</clipPath>
</defs>
</svg>
